<svg xmlns="http://www.w3.org/2000/svg" viewBox="0 0 640 480" role="img" aria-labelledby="title"><title id="title">Café del Volcán Poás</title><rect width="640" height="480" fill="#dce8df"/><circle cx="110" cy="90" r="55" fill="#f5cd69"/><path d="m20 370 225-250 92 111 76-88 207 227z" fill="#3b694e"/><path d="m170 390 165-210 170 210z" fill="#224635"/><path d="M304 180c10-36 55-43 67-78 11 43-21 66-29 98Z" fill="#fff" opacity=".72"/><rect x="205" y="258" width="230" height="170" rx="14" fill="#f1c66e"/><path d="M205 292h230M235 258v170M405 258v170" stroke="#9c6637" stroke-width="8"/><circle cx="320" cy="350" r="48" fill="#fff5dd"/><path d="M300 380c-25-25-8-72 31-73 24 26 8 72-31 73Z" fill="#603a29"/></svg>
